<svg width="186" height="29" viewBox="0 0 186 29" fill="none" xmlns="http://www.w3.org/2000/svg">
<path d="M25.6713 28.5394V17.1466C25.6713 15.5355 25.3212 14.2696 24.5044 13.464C23.8043 12.6585 22.7541 12.1982 21.4705 12.1982C20.187 12.1982 19.1368 12.6585 18.2033 13.6942C17.3864 14.7299 16.9197 16.1109 16.9197 17.8371V28.4244H12.8356V17.0315C12.8356 15.4204 12.4856 14.1545 11.6688 13.349C10.9686 12.5434 9.91844 12.0831 8.63488 12.0831C7.35132 12.0831 6.30113 12.5434 5.36763 13.5791C4.55082 14.6148 4.08407 15.9958 4.08407 17.722V28.3093H0V8.74578H4.08407V10.8172C4.31744 10.8172 4.55082 10.5871 4.78419 10.3569C5.13425 10.0117 5.71769 9.66642 6.65119 9.2061C7.58469 8.74578 8.51819 8.51562 9.56838 8.51562C10.3852 8.51562 11.0853 8.6307 11.7854 8.86086C12.4856 9.09102 13.069 9.32118 13.5358 9.66642C14.0025 10.0117 14.3526 10.3569 14.7026 10.7021C15.0527 11.0474 15.2861 11.2775 15.4028 11.5077L15.6361 11.8529C15.6361 11.7378 15.7528 11.6228 15.8695 11.5077C15.9862 11.3926 16.2196 11.0474 16.6863 10.7021C17.0364 10.3569 17.5031 10.0117 17.9699 9.66642C18.4366 9.43626 19.1368 9.09102 19.8369 8.86086C20.6537 8.6307 21.4705 8.51562 22.2873 8.51562C24.6211 8.51562 26.3714 9.2061 27.7716 10.7021C29.0552 12.1982 29.7553 14.2696 29.7553 17.1466V28.5394H25.6713Z" fill="black"/>
<path d="M51.4583 28.5391H47.3742V26.4677C47.3742 26.4677 47.2575 26.5828 47.1408 26.6979C47.0241 26.8129 46.7908 27.0431 46.324 27.2733C45.9739 27.5034 45.5072 27.7336 45.0404 27.9637C44.5737 28.1939 43.9903 28.424 43.4068 28.5391C42.7067 28.6542 42.0066 28.7693 41.4231 28.7693C39.4394 28.7693 37.6891 28.1939 36.4056 27.0431C35.122 25.8923 34.4219 24.5113 34.4219 23.1304C34.4219 21.5193 34.8886 20.1383 35.9388 19.1026C36.989 18.0669 38.3893 17.3764 40.1396 17.0312L47.3742 15.7653C47.3742 14.7296 47.0241 13.809 46.2073 13.1185C45.3905 12.428 44.457 12.0828 43.1734 12.0828C42.1233 12.0828 41.1898 12.3129 40.3729 12.7733C39.5561 13.2336 38.9727 13.6939 38.6226 14.0391L38.0392 14.7296L35.3554 12.0828C35.4721 11.9677 35.5888 11.8526 35.7054 11.6225C35.8221 11.5074 36.1722 11.1621 36.6389 10.7018C37.1057 10.2415 37.6891 9.89627 38.1559 9.55103C38.7393 9.20579 39.4394 8.97563 40.3729 8.63039C41.3064 8.40024 42.2399 8.28516 43.1734 8.28516C45.6239 8.28516 47.6076 8.97563 49.1245 10.3566C50.6414 11.7375 51.4583 13.4637 51.4583 15.5352V28.5391ZM42.0066 25.3169C43.6402 25.3169 45.0404 24.8566 45.9739 23.8209C46.9074 22.7852 47.3742 21.4042 47.3742 19.5629V19.2177L40.9564 20.2534C40.2563 20.3685 39.6728 20.7137 39.2061 21.174C38.7393 21.6344 38.5059 22.2098 38.5059 22.9002C38.5059 23.5907 38.856 24.1661 39.4394 24.6264C40.0229 25.0867 40.8397 25.3169 42.0066 25.3169Z" fill="black"/>
<path d="M65.6963 8.51587C66.3964 8.51587 67.2132 8.63095 67.9134 8.74603C68.6135 8.97619 69.1969 9.09127 69.6637 9.43651C70.1304 9.66667 70.5972 10.0119 70.9472 10.2421C71.2973 10.4722 71.6474 10.7024 71.764 10.9325L71.9974 11.2778V0H76.0815V28.5397H71.9974V26.2381C71.764 26.4683 71.5307 26.6984 71.1806 26.9286C70.8305 27.2738 70.1304 27.619 68.9635 28.0794C67.7967 28.5397 66.7465 28.7698 65.5796 28.7698C63.0125 28.7698 60.6787 27.7341 58.8117 25.7778C56.828 23.8214 55.8945 21.4048 55.8945 18.5278C55.8945 15.6508 56.828 13.3492 58.8117 11.2778C60.7954 9.55159 63.1292 8.51587 65.6963 8.51587ZM61.9623 23.3611C63.1292 24.627 64.5294 25.3175 66.163 25.3175C67.7967 25.3175 69.0802 24.627 70.3638 23.3611C71.6474 22.0952 72.2308 20.5992 72.2308 18.7579C72.2308 16.9167 71.6474 15.4206 70.3638 14.1548C69.0802 12.8889 67.7967 12.1984 66.163 12.1984C64.5294 12.1984 63.2458 12.8889 61.9623 14.1548C60.7954 15.4206 60.0953 16.9167 60.0953 18.7579C60.0953 20.5992 60.7954 22.0952 61.9623 23.3611Z" fill="black"/>
<path d="M95.0996 11.2775L92.4158 13.9244C92.2991 13.8093 92.1824 13.6942 91.9491 13.464C91.7157 13.2339 91.3656 13.0037 90.6655 12.7736C89.9654 12.4283 89.3819 12.3132 88.6818 12.3132C87.7483 12.3132 87.0482 12.5434 86.5814 12.8886C86.1147 13.349 85.7646 13.8093 85.7646 14.2696C85.7646 14.845 85.998 15.3053 86.4647 15.6505C86.9315 15.9958 87.6316 16.341 88.3317 16.5712C89.0319 16.8013 89.8487 17.0315 90.7822 17.2617C91.599 17.6069 92.4158 17.9521 93.2326 18.2974C94.0494 18.6426 94.6329 19.218 95.0996 20.0236C95.5664 20.8291 95.7997 21.7498 95.7997 22.7855C95.7997 24.5117 95.0996 25.8926 93.6994 27.1585C92.2991 28.3093 90.5488 28.9998 88.3317 28.9998C87.3982 28.9998 86.4647 28.8847 85.5312 28.6545C84.5977 28.4244 83.8976 28.0791 83.3142 27.849C82.7307 27.5037 82.264 27.1585 81.7972 26.8132C81.3305 26.468 81.0971 26.2378 80.8637 25.8926L80.5137 25.5474L83.1975 22.9005C83.3142 23.1307 83.5476 23.3609 83.7809 23.591C84.0143 23.8212 84.5977 24.2815 85.5312 24.6267C86.3481 25.0871 87.2815 25.3172 88.2151 25.3172C89.2652 25.3172 90.1987 25.0871 90.6655 24.6267C91.1322 24.1664 91.4823 23.591 91.4823 22.9005C91.4823 22.3251 91.2489 21.8648 90.7822 21.5196C90.3154 21.1744 89.6153 20.8291 88.9152 20.599C88.215 20.3688 87.3982 20.1386 86.4647 19.7934C85.6479 19.4482 84.8311 19.218 84.0143 18.7577C83.1975 18.4124 82.6141 17.8371 82.1473 17.0315C81.6805 16.2259 81.4472 15.3053 81.4472 14.2696C81.4472 12.7736 82.1473 11.3926 83.4309 10.2418C84.7144 9.09102 86.4647 8.51562 88.4484 8.51562C89.2652 8.51562 89.9654 8.6307 90.7822 8.74578C91.4823 8.97594 92.1824 9.09102 92.6492 9.43626C93.1159 9.66642 93.5827 10.0117 93.9327 10.2418C94.2828 10.472 94.5162 10.7021 94.7496 10.9323L95.0996 11.2775Z" fill="black"/>
<path d="M118.788 20.1383H103.268C103.502 21.5193 104.202 22.6701 105.369 23.7058C106.535 24.7415 107.936 25.2018 109.569 25.2018C110.736 25.2018 111.786 24.9717 112.837 24.3963C113.887 23.9359 114.587 23.3606 114.937 22.9002L115.52 22.0947L118.204 24.7415C118.087 24.8566 117.971 24.9717 117.854 25.2018C117.737 25.432 117.271 25.6621 116.804 26.1225C116.22 26.5828 115.637 26.928 115.054 27.3883C114.47 27.7336 113.653 28.0788 112.603 28.309C111.67 28.6542 110.619 28.7693 109.569 28.7693C106.769 28.7693 104.318 27.7336 102.335 25.6621C100.351 23.5907 99.3008 21.174 99.3008 18.2971C99.3008 15.5352 100.351 13.2336 102.335 11.2772C104.318 9.32087 106.652 8.28516 109.453 8.28516C112.253 8.28516 114.587 9.20579 116.454 11.0471C118.321 12.8883 119.254 15.1899 119.254 17.9518L118.788 20.1383ZM109.336 12.0828C107.819 12.0828 106.535 12.5431 105.602 13.3486C104.552 14.2693 103.852 15.305 103.502 16.6859H114.937C114.704 15.305 114.12 14.1542 113.07 13.3486C112.136 12.428 110.853 12.0828 109.336 12.0828Z" fill="black"/>
<path d="M133.259 28.5401H129.174L121.123 8.97656H125.44L131.275 23.2464L137.109 8.97656H141.427L133.259 28.5401Z" fill="black"/>
<path d="M163.012 20.1383H147.493C147.726 21.5193 148.426 22.6701 149.593 23.7058C150.76 24.7415 152.16 25.2018 153.794 25.2018C154.961 25.2018 156.011 24.9717 157.061 24.3963C158.111 23.9359 158.811 23.3606 159.162 22.9002L159.745 22.0947L162.429 24.7415C162.312 24.8566 162.195 24.9717 162.079 25.2018C161.962 25.432 161.495 25.6621 161.029 26.1225C160.445 26.5828 159.862 26.928 159.278 27.3883C158.695 27.7336 157.878 28.0788 156.828 28.309C155.894 28.6542 154.844 28.7693 153.794 28.7693C150.993 28.7693 148.543 27.7336 146.559 25.6621C144.576 23.5907 143.525 21.174 143.525 18.2971C143.525 15.5352 144.576 13.2336 146.559 11.2772C148.543 9.32087 150.877 8.28516 153.677 8.28516C156.478 8.28516 158.811 9.20579 160.678 11.0471C162.545 12.8883 163.479 15.1899 163.479 17.9518L163.012 20.1383ZM153.561 12.0828C152.044 12.0828 150.76 12.5431 149.827 13.3486C148.776 14.2693 148.076 15.305 147.726 16.6859H159.162C158.928 15.305 158.345 14.1542 157.295 13.3486C156.361 12.428 155.077 12.0828 153.561 12.0828Z" fill="black"/>
<path d="M171.881 8.97625V11.0477L172.115 10.8175C172.232 10.7024 172.465 10.4723 172.932 10.2421C173.282 10.012 173.748 9.78181 174.215 9.55165C174.682 9.32149 175.265 9.09133 175.849 8.97625C176.549 8.74609 177.249 8.74609 177.949 8.74609C180.4 8.74609 182.267 9.55165 183.784 11.0477C185.301 12.5437 186.001 14.7302 186.001 17.262V28.6548H181.917V17.262C181.917 15.881 181.45 14.7302 180.516 13.8096C179.583 12.889 178.533 12.4286 177.132 12.4286C175.615 12.4286 174.332 12.889 173.398 13.9247C172.465 14.9604 171.998 16.3413 171.998 18.1826V28.7699H167.914V9.20641H171.881V8.97625Z" fill="black"/>
<path d="M39.3245 5.29489C40.5489 5.29489 41.5415 4.31596 41.5415 3.10838C41.5415 1.90081 40.5489 0.921875 39.3245 0.921875C38.1 0.921875 37.1074 1.90081 37.1074 3.10838C37.1074 4.31596 38.1 5.29489 39.3245 5.29489Z" fill="black"/>
<path d="M47.7249 5.29489C48.9493 5.29489 49.9419 4.31596 49.9419 3.10838C49.9419 1.90081 48.9493 0.921875 47.7249 0.921875C46.5004 0.921875 45.5078 1.90081 45.5078 3.10838C45.5078 4.31596 46.5004 5.29489 47.7249 5.29489Z" fill="black"/>
</svg>
